HIERARCHY
ROOT Hips
{
	OFFSET 0.0000 0.0000 0.0000
	CHANNELS 6 Xposition Yposition Zposition Zrotation Xrotation Yrotation
	JOINT Ab
	{
		OFFSET -0.0000 8.0846 -0.0000
		CHANNELS 3 Zrotation Xrotation Yrotation
		JOINT Chest
		{
			OFFSET -0.0000 25.0068 -0.0000
			CHANNELS 3 Zrotation Xrotation Yrotation
			JOINT Neck
			{
				OFFSET -0.0000 25.0068 0.0000
				CHANNELS 3 Zrotation Xrotation Yrotation
				JOINT Head
				{
					OFFSET -0.0000 10.7556 0.0000
					CHANNELS 3 Zrotation Xrotation Yrotation
					End Site
					{
						OFFSET -0.0000 16.6222 0.0000
					}
				}
			}
			JOINT LeftCollar
			{
				OFFSET -0.0000 25.0068 0.0000
				CHANNELS 3 Zrotation Xrotation Yrotation
				JOINT LeftShoulder
				{
					OFFSET 19.5556 -0.0000 0.0000
					CHANNELS 3 Zrotation Xrotation Yrotation
					JOINT LeftElbow
					{
						OFFSET 27.1828 0.0000 0.0000
						CHANNELS 3 Zrotation Xrotation Yrotation
						JOINT LeftWrist
						{
							OFFSET 23.3157 0.0000 0.0000
							CHANNELS 3 Zrotation Xrotation Yrotation
							End Site
							{
								OFFSET 0.0000 -14.6667 0.0000
							}
						}
					}
				}
			}
			JOINT RightCollar
			{
				OFFSET -0.0000 25.0068 0.0000
				CHANNELS 3 Zrotation Xrotation Yrotation
				JOINT RightShoulder
				{
					OFFSET -19.5556 0.0000 0.0000
					CHANNELS 3 Zrotation Xrotation Yrotation
					JOINT RightElbow
					{
						OFFSET -27.1828 0.0000 0.0000
						CHANNELS 3 Zrotation Xrotation Yrotation
						JOINT RightWrist
						{
							OFFSET -23.3157 0.0000 0.0000
							CHANNELS 3 Zrotation Xrotation Yrotation
							End Site
							{
								OFFSET -0.0000 -14.6667 0.0000
							}
						}
					}
				}
			}
		}
	}
	JOINT LeftHip
	{
		OFFSET 11.7333 0.0000 0.0000
		CHANNELS 3 Zrotation Xrotation Yrotation
		JOINT LeftKnee
		{
			OFFSET -0.0000 -40.8688 0.0000
			CHANNELS 3 Zrotation Xrotation Yrotation
			JOINT LeftAnkle
			{
				OFFSET -0.0000 -44.4337 0.0000
				CHANNELS 3 Zrotation Xrotation Yrotation
				End Site
				{
					OFFSET -0.0000 -4.8889 16.6222
				}
			}
		}
	}
	JOINT RightHip
	{
		OFFSET -11.7333 0.0000 0.0000
		CHANNELS 3 Zrotation Xrotation Yrotation
		JOINT RightKnee
		{
			OFFSET -0.0000 -40.8688 0.0000
			CHANNELS 3 Zrotation Xrotation Yrotation
			JOINT RightAnkle
			{
				OFFSET -0.0000 -44.4337 0.0000
				CHANNELS 3 Zrotation Xrotation Yrotation
				End Site
				{
					OFFSET -0.0000 -4.8889 16.6222
				}
			}
		}
	}
}
MOTION
Frames: 24
Frame Time: 0.010000
0.8649 85.5966 113.0269 1.3810 356.8054 176.8236 1.3666 5.8657 1.7145 354.2745 7.2921 2.1421 3.4956 336.8293 0.3944 0.1879 0.8520 359.6750 340.9559 358.3253 9.9876 296.6793 11.1966 8.9516 13.3878 355.6547 323.4593 83.8677 358.6607 335.1009 19.4927 359.3040 356.0403 28.4639 47.0310 41.2880 328.7657 349.2052 37.5739 271.5810 349.3448 8.8955 4.1188 338.3417 356.3457 356.6258 17.3145 0.8757 355.2315 350.0704 22.3743 1.3051 354.0427 1.1453 358.4926 30.2475 14.1858 355.4377 337.4340 336.7857 
0.5911 85.3309 111.1231 1.2462 356.9580 176.1279 1.0818 5.6133 2.0099 353.9373 7.2710 2.4391 3.8124 336.7779 0.3259 0.5051 1.2827 359.5249 341.0278 358.3191 10.2283 296.5017 11.3909 9.4515 13.7366 355.4980 324.1956 83.6330 358.7540 334.9996 19.4620 359.3146 356.1135 28.6238 46.8371 41.0642 328.7219 349.0405 38.1291 272.0513 349.4375 9.4791 3.8710 338.6346 357.3478 356.4004 19.4369 359.4910 356.4653 351.1265 23.4809 0.8229 354.0581 0.9537 358.0502 32.4480 14.6032 356.8552 337.2632 337.8371 
0.3942 85.1754 109.7595 1.0668 357.0472 175.4940 0.7376 5.4862 2.2211 353.7458 7.1351 2.6388 4.1822 336.5887 0.2886 0.5706 1.8132 359.4057 341.1876 358.3844 9.4493 296.8621 6.9643 10.8085 11.4821 356.5951 323.2341 84.3258 359.6466 331.9247 19.5609 359.2837 355.8862 28.0400 46.7187 41.6814 328.9884 349.0874 38.3815 272.2645 349.7612 9.9104 3.6233 338.9961 358.0005 356.4697 20.4409 359.4734 355.9715 351.3270 23.4169 0.5661 353.6362 0.9767 357.5146 34.7505 15.3396 358.7055 336.9939 338.4575 
0.2276 85.0752 108.5180 0.8974 357.2372 175.0736 0.4522 5.4080 2.2963 353.5887 7.2324 2.7143 4.4271 336.4277 0.3394 0.9191 1.9581 359.3987 341.3412 358.4500 9.1605 296.7801 5.4963 11.3747 10.8122 356.6733 323.1819 84.4649 359.7784 330.6643 19.5081 359.2695 355.6092 27.7418 46.8499 42.1233 329.0431 348.9935 38.6205 271.8894 349.8513 10.1067 3.5400 339.5839 357.9704 356.1144 21.0741 0.2446 355.9875 351.4587 22.8638 0.3916 353.2214 1.1172 357.1323 36.9535 15.4707 0.4238 337.4490 339.1917 
0.0574 85.0471 107.3355 0.6830 357.2666 174.8186 0.1683 5.3135 2.2814 353.4046 7.0757 2.6891 4.5889 336.4649 0.3313 1.1999 2.0159 359.3476 341.3044 358.4794 8.8732 296.9019 4.6649 11.8500 10.4804 356.6962 323.2786 84.4029 0.1262 330.0605 19.6042 359.2282 355.5321 27.9824 47.0512 41.9190 328.9960 348.9012 38.8131 272.2357 349.9343 10.4426 3.4666 339.9415 357.7928 355.3936 21.8445 0.4867 355.8268 351.1320 22.9583 0.2029 352.3809 1.4268 357.2223 39.5971 14.3209 358.6692 339.8460 339.2182 
-0.1186 85.0508 106.1182 0.4555 357.3840 174.6511 359.8958 5.2560 2.2771 353.2296 6.9737 2.6766 4.6317 336.4213 0.2047 1.4770 2.2218 359.1961 341.2612 358.5504 8.3638 297.2797 3.0393 12.4054 9.5180 357.0807 323.0909 84.6980 0.3164 328.7125 19.6212 359.2157 355.5077 28.8566 47.2492 41.1420 329.0795 348.8623 39.0849 271.9946 349.7650 10.5901 3.2066 340.4615 357.8818 354.9074 22.5142 0.2875 356.2114 350.8273 23.1141 359.9293 351.5549 1.8179 357.7301 42.2870 12.1055 0.3098 340.5285 340.6257 
-0.2937 85.0965 104.9282 0.2552 357.4585 174.5818 359.8432 5.1563 2.1859 352.7702 6.9696 2.6094 4.9458 336.2038 0.2200 1.5110 2.6287 359.1347 341.3493 358.6292 8.0392 297.4662 2.7321 12.5007 9.2977 357.0553 323.2494 84.4154 0.7128 328.1453 19.7081 359.1946 355.5168 30.3196 47.2670 39.8451 329.3797 348.8994 39.5659 271.3653 349.7445 10.7504 2.8572 341.0250 358.2814 354.7318 23.0185 359.9869 356.6774 350.7159 23.2065 359.6307 350.5477 2.0794 358.3702 45.0700 9.5268 0.4903 342.6475 342.0619 
-0.4573 85.1663 103.7522 0.1280 357.5714 174.6349 359.8341 5.1325 2.0066 352.4847 6.8540 2.4413 5.0590 336.2355 0.2102 1.5662 2.9212 359.1017 341.3672 358.7005 7.5871 297.6704 2.2962 12.6893 8.9270 357.1425 323.3173 84.5427 1.0769 327.4160 19.7219 359.2210 355.6425 32.1024 47.3170 38.1124 329.7866 348.9681 40.0126 270.7060 349.7271 10.9202 2.5677 341.7821 358.5732 354.6165 23.2210 359.9865 357.4398 350.7456 23.1244 359.3701 349.5448 2.1227 359.0498 47.6899 6.7006 0.7237 345.0603 343.2526 
-0.6210 85.2511 102.5846 0.0566 357.6416 174.7317 359.9788 4.9841 1.7776 352.1634 6.8523 2.2395 5.0485 336.3736 0.2219 1.7180 3.1565 359.1231 341.4409 358.7779 7.1256 297.7963 1.7227 12.7598 8.5010 357.2845 323.3299 84.7110 1.4632 326.5695 19.7564 359.2450 355.7894 33.9619 47.2051 36.2765 330.3397 349.0831 40.5618 270.3332 349.9407 10.9967 2.3885 342.6191 359.0813 354.6134 23.2056 359.8096 357.5617 350.4812 22.8920 359.1197 348.4261 1.9643 359.5342 50.1981 4.4567 1.9163 346.8939 344.3486 
-0.7576 85.3532 101.3719 0.0624 357.8610 174.9289 0.1827 4.9212 1.4314 351.9519 6.9202 1.9193 4.8941 336.5481 0.2588 1.9164 3.3789 359.1999 341.5209 358.8464 6.7836 297.8101 1.2838 12.6473 8.1608 357.3815 323.3024 84.7345 1.8621 325.7240 19.8201 359.2587 355.8578 35.4777 47.0746 34.7989 331.1064 349.3305 40.8327 270.2099 350.1172 11.0278 2.2353 343.7343 359.6681 354.6649 23.0059 359.2752 357.7740 350.2089 22.6792 358.9096 347.5340 1.8747 0.1930 52.4556 2.7221 1.5051 348.3711 344.7860 
-0.9133 85.4756 100.2089 0.0375 357.8831 175.1237 0.2734 4.7885 1.0822 351.9756 6.7799 1.5616 4.6683 336.7894 0.3548 2.0890 3.6169 359.3293 341.4596 358.8668 6.6715 297.7689 1.6845 12.2478 8.2505 357.2811 323.4267 84.5067 2.0859 325.4329 19.8338 359.2697 355.8526 36.8037 47.1464 33.4684 331.8557 349.5959 40.8568 270.2910 350.1426 11.1409 1.9609 344.6332 0.1692 354.8603 22.7803 358.8758 358.0715 349.9559 22.3836 358.6517 346.4008 1.7390 0.8721 54.4027 1.2761 0.1161 349.5754 345.0041 
-1.0920 85.6252 99.1159 0.0453 357.7120 175.3903 0.3329 4.6126 0.8058 352.1500 6.4499 1.2555 4.6653 337.0667 0.4590 1.8701 3.8832 359.4606 341.3125 358.8948 6.5015 297.7968 2.0238 11.8165 8.3223 357.2469 323.5938 84.5217 1.9987 325.2275 19.8515 359.2682 355.6745 38.0834 47.2558 32.1765 332.6480 349.9254 40.7261 270.5156 350.1780 11.1894 1.6516 345.3266 0.4489 355.1377 22.4592 358.7214 358.1521 349.6494 21.9628 358.4452 345.0081 1.2757 1.1950 56.1009 0.8605 358.8987 350.1410 344.4112 
-1.2353 85.7856 97.9790 0.0852 357.7692 175.7363 0.4302 4.5035 0.4745 352.2758 6.3714 0.9159 4.8046 337.2987 0.5475 1.5309 4.1433 359.5234 341.2651 358.9150 6.4093 297.6157 3.3154 11.0643 8.9453 356.9436 323.8865 84.5694 1.8375 326.0136 19.8767 359.2252 355.5170 39.6289 47.2983 30.6029 333.3154 350.2057 40.4855 271.1598 349.6524 11.7780 1.2733 346.3449 0.5613 355.4850 21.9836 358.6381 358.1676 349.2647 21.6153 358.2914 343.9725 0.8871 1.7919 57.2332 359.9532 358.7169 349.5881 343.7336 
-1.3865 85.9604 96.8701 0.1859 357.7073 176.0442 0.5353 4.3987 0.2140 352.5368 6.1043 0.6272 4.8917 337.5467 0.6513 1.3293 4.4378 359.6466 341.1528 358.9344 6.1820 297.6181 3.7482 10.5141 9.0213 356.9726 323.7538 84.9388 1.6024 326.4905 19.8825 359.1823 355.2355 41.1133 47.3362 28.9980 334.0769 350.5600 40.2751 272.0843 349.5755 12.6812 1.1175 347.4477 0.3858 355.5677 21.1544 358.4918 356.4449 348.7666 21.1503 358.2138 342.7760 0.7239 2.5350 58.1277 359.4045 357.1878 349.5320 342.6631 
-1.5046 86.0781 96.0033 0.2374 357.5874 176.2962 0.6725 4.1819 359.9485 352.6784 6.0292 0.3519 4.9768 337.6343 0.7457 1.0637 4.7508 359.7307 341.1321 358.9603 6.0685 297.5241 4.0389 9.8947 9.0728 356.9841 323.6768 85.4621 1.2958 327.0450 19.8800 359.1528 355.0752 42.4655 47.2249 27.5269 334.7634 350.8535 40.1530 272.7668 349.5750 13.6619 0.9170 348.2866 0.2383 355.7816 20.3728 358.4783 358.0639 348.9716 21.4140 358.0921 341.7880 0.4935 2.9580 58.4012 359.1766 357.8868 348.8408 342.2896 
-1.5890 86.2493 94.9721 0.4718 357.6358 176.7091 0.7981 4.2205 359.6375 353.1098 5.8297 0.0113 4.9949 337.7296 0.7571 0.8663 5.1555 359.7382 341.0312 358.9831 5.8424 297.4649 4.9441 9.1628 9.4113 356.8184 323.5924 85.8099 0.8341 327.9917 19.8783 359.1167 354.7080 43.8813 47.0277 25.8264 335.5151 351.1865 40.0341 273.6574 349.7056 14.5734 0.8440 349.4531 359.8013 355.9412 19.4762 358.5016 359.8594 349.2021 21.7686 358.2369 340.8510 0.2891 3.5077 58.3817 358.1538 357.2102 348.2992 342.3595 
-1.6867 86.5148 93.5727 0.8004 357.7829 177.2671 0.9319 4.3441 359.1845 353.7452 5.5833 359.5185 5.0627 337.9691 0.8563 0.7750 5.4756 359.8489 340.9311 359.0067 5.6563 297.4041 6.3646 8.1405 10.0060 356.5457 323.3540 86.1307 0.4092 329.6823 19.8188 359.0615 354.3296 45.6950 46.9115 23.6063 336.4612 351.6464 39.6556 274.4191 349.4359 15.8395 0.7674 351.0447 359.1823 356.1222 18.4023 358.5282 0.4037 349.0711 21.8546 358.5423 339.5767 0.1276 4.2843 58.4586 356.8690 356.9316 347.6422 342.2254 
-1.7573 86.6920 92.4926 1.0566 357.8002 177.6142 1.0453 4.3594 358.8665 354.2462 5.4226 359.1719 5.2962 338.1398 1.1003 0.5506 5.5782 0.0673 340.8983 359.0072 5.6637 297.3312 7.2915 7.1959 10.4594 356.3846 323.0158 86.2892 0.0123 330.7876 19.7565 359.0149 354.1412 47.0932 46.8784 21.7718 337.3184 352.0530 39.2191 274.5728 349.0236 17.0425 0.7763 352.2750 358.8143 356.2846 17.4274 358.5399 0.1778 348.8685 21.7835 358.7748 338.4803 0.2057 5.0137 58.0732 355.8343 356.6742 347.3202 341.9938 
-1.8282 86.8447 91.4775 1.2696 357.7410 178.0888 1.1303 4.3631 358.4607 354.7494 5.3001 358.7848 5.3081 338.0848 1.1790 0.5849 5.8575 0.1295 340.9548 359.0478 5.4795 297.2543 8.0979 6.1843 10.8112 356.2547 322.5983 86.8594 359.4429 332.2532 19.6934 358.9721 353.7901 48.3938 46.7006 20.1079 338.2208 352.4949 38.7192 274.6469 349.1255 18.1796 0.7284 353.2494 358.3983 356.4285 16.7277 358.7640 0.0296 348.5253 21.5682 358.9188 337.2323 0.1054 5.8561 57.7400 354.6991 356.0878 346.6910 341.9676 
-1.8593 86.9788 90.4169 1.5305 357.8039 178.5087 1.1212 4.4444 358.1660 355.4135 5.2568 358.4328 5.5992 337.9572 1.4525 0.3179 6.2063 0.3745 340.8177 358.9962 6.1211 297.3448 12.4543 4.4695 13.0085 355.2205 323.1044 86.6036 358.8627 336.0510 19.5819 358.9286 353.5379 49.7063 46.4921 18.3550 339.0941 352.9089 38.1972 274.5862 349.1258 19.4576 0.8101 354.3567 358.1505 356.6016 16.0198 358.6433 359.8435 348.2817 21.5056 359.1591 336.1895 0.1636 6.2519 56.9906 354.3924 355.5144 346.6547 341.9401 
-1.8995 87.0882 89.4150 1.7103 357.7148 178.9728 1.0705 4.4584 357.8409 356.0408 5.1651 358.0648 5.9786 337.9610 1.6749 359.9187 6.1982 0.5171 340.8607 358.9837 6.1034 297.4490 14.0451 3.2376 13.7313 355.0703 322.7266 87.0716 358.8651 337.6752 19.4930 358.8791 353.2141 51.0854 46.1284 16.5280 339.9297 353.3001 37.6716 274.4849 349.0459 20.8208 0.8350 355.1837 357.9860 356.8251 15.4420 358.4960 359.6882 348.0559 21.3339 359.2912 334.9198 0.1624 6.6139 56.1794 354.6082 355.8904 346.7720 341.4173 
-1.9323 87.1848 88.4015 1.8382 357.7753 179.4995 0.8251 4.6138 357.5647 356.9209 5.1574 357.7288 6.0667 337.8031 1.7958 359.7932 6.3292 0.6064 340.7975 358.9689 6.1032 297.7701 15.7573 1.7851 14.4197 354.8488 322.4163 87.4282 358.6716 339.7334 19.2571 358.8466 352.9051 52.5254 45.7622 14.6683 340.5721 353.5978 37.0704 274.4304 348.9052 22.0863 0.8046 356.1338 357.6990 357.0128 14.9342 358.3655 359.6360 347.7473 21.2428 359.3255 333.8679 0.1204 6.7026 55.1210 353.9731 356.1375 346.7192 342.0057 
-1.9608 87.2490 87.3830 1.9499 357.7725 180.0402 0.5825 4.6703 357.2915 357.7719 5.2334 357.4134 6.1863 337.6065 1.8949 359.6379 6.4117 0.6833 340.7123 358.9452 6.1938 298.2958 18.1249 0.0880 15.4415 354.4544 322.3723 87.6965 358.4443 342.1109 19.0400 358.8063 352.5387 53.8991 45.3422 12.8820 341.0949 353.8586 36.3846 274.5770 348.7730 23.2537 0.7872 356.9867 357.4387 357.1880 14.4554 358.2146 359.5501 347.4876 21.1409 359.3228 332.7819 0.1178 6.8402 53.9261 353.3956 356.6267 346.6373 342.5504 
-1.9707 87.2802 86.3884 2.0708 357.6835 180.6831 0.4977 4.6863 356.9049 358.3853 5.2715 356.9970 6.4796 337.4413 2.0602 359.4139 6.4084 0.8076 340.6761 358.9225 6.3400 298.9927 21.0603 358.3438 17.0165 353.7809 322.3939 87.5400 358.4493 344.7195 18.9813 358.7449 352.1570 55.3129 44.4362 11.0161 341.8458 354.2394 35.7384 274.5957 348.6415 24.5482 0.8152 357.6429 357.2229 357.3728 14.1187 357.9560 359.2766 347.2318 21.0108 359.2846 331.6547 0.1735 7.2505 52.7412 353.5558 355.5182 346.6118 341.9563 
